<svg width="900" height="900" viewBox="0 0 900 900" fill="none" xmlns="http://www.w3.org/2000/svg">
<path d="M429.769 106.941C429.312 106.239 428.897 105.527 428.522 104.805L429.769 106.941C440.324 123.184 472.958 134.544 539.968 170.703C637.846 223.518 675.156 311.221 650.929 383.903C631.547 442.048 587.938 484.204 540.937 525.875C582.123 485.173 650.929 429.45 648.022 344.655C645.608 274.252 610.227 221.033 532.215 175.548C454.203 130.063 442.736 124.025 435.306 116.434L429.769 106.941Z" fill="#62D7C7"/>
<path d="M425.613 108.322C425.467 107.77 425.302 107.227 425.138 106.685L430.894 120.165C431.039 131.009 427.822 142.018 422.434 151.34C404.331 183.185 369.657 198.603 340.991 219.002C300.871 246.844 256.351 286.5 241.534 334.334C234.837 355.935 234.818 379.203 242.6 400.688C258.609 443.715 298.245 477.711 334.595 504.051C344.209 510.825 354.006 517.347 364.027 523.52C343.957 511.242 324.333 498.159 305.901 483.458C282.865 465.006 261.284 444.083 245.972 418.606C236.552 403.13 229.323 386.016 227.094 367.884C218.721 292.004 295.948 239.528 352.436 204.262C372.148 192.023 393.09 180.694 408.547 163.076C421.852 148.423 430.981 128.131 425.613 108.322Z" fill="#62D7C7"/>
<path fill-rule="evenodd" clip-rule="evenodd" d="M296.701 354.472C295.66 367.031 296.399 379.697 298.8 392.089C299.859 395.469 300.892 398.636 302.006 401.584C304.403 410.31 308.736 417.225 313.396 424.662C320.023 435.239 325.799 439.626 326.768 460.461C327.737 481.297 357.518 518.122 368.662 521.514C342.982 506.493 347.119 480.812 359.717 466.276C375.222 448.385 368.662 438.774 368.662 438.774C368.662 438.774 377.16 447.378 371.83 467.729C358.584 502.617 400.903 542.834 414.47 551.556C382.562 523.452 387.336 483.719 404.779 468.698C427.553 447.863 422.708 429.935 422.708 429.935C422.708 429.935 432.351 448.813 419.8 466.276C397.513 497.287 444.512 551.071 464.379 565.608C440.151 542.834 440.533 493.41 460.502 475.482C480.472 457.554 479.884 423.151 479.884 423.151C479.884 423.151 481.198 443.987 490.544 459.008C502.658 478.476 500.72 530.236 469.709 551.556C506.05 529.267 545.298 480.812 528.823 454.647C519.238 439.423 530.277 426.543 530.277 426.543C530.277 426.543 522.04 435.265 541.906 452.708C556.927 467.729 554.504 514.73 528.823 522.968C549.174 517.153 577.278 481.297 577.278 454.647C577.278 423.636 589.876 426.543 596.22 402.757C604.856 377.646 604.41 348.556 601.693 320.951C597.197 275.219 564.141 236.465 529.651 205.939C522.92 199.981 516.052 194.14 509.182 188.297C491.688 173.419 474.179 158.528 458.878 141.669C447.23 128.838 436.899 114.912 426.598 101.015L425.784 99.9106C421.578 94.2414 417.372 88.5723 413.079 83C413.079 83 420.687 97.769 425.59 107.654L431.347 121.134C433.246 127.384 434.399 134.178 435.31 140.331C436.58 148.908 436.609 157.746 433.886 166.1C429.263 180.248 417.479 191.228 406.111 201.588C400.815 206.415 395.426 211.22 390.022 216.039L390.02 216.041C346.325 255.002 301.643 294.844 296.701 354.472ZM462.337 358.782C462.337 358.782 322.373 416.836 316.727 346.525C313.677 308.452 364.131 269.38 364.131 269.38C364.131 269.38 401.764 343.188 462.337 358.782ZM587.874 371.065C580.743 406.829 507.928 364.037 507.928 364.037C551.503 362.351 581.095 313.159 581.095 313.159C581.095 313.159 592.154 349.591 587.874 371.065Z" fill="white"/>
<path d="M332.792 392.508C321.541 388.816 311.143 380.327 309.66 367.913C308.158 376.557 312.849 385.512 319.497 390.997C326.28 396.656 334.837 399.573 343.356 401.162C360.198 403.944 377.322 402.141 393.593 397.557C373.175 397.373 352.349 398.875 332.802 392.508H332.792Z" fill="#62D7C7"/>
<path d="M70.0754 635.566V664.397H112.706V635.566H129.781V711.126H112.706V679.699H70.0754V711.126H53V635.566H70.0754Z" fill="white"/>
<path d="M201.387 635.566L233.493 711.126H215.458L210.535 699.652H163.941L159.018 711.126H140.712L173.642 635.566H201.377H201.387ZM170.23 684.757H203.848L190.184 650.733H184.311L170.24 684.757H170.23Z" fill="white"/>
<path d="M306.33 661.8C303.413 657.7 299.973 654.56 296.009 652.37C292.046 650.18 287.055 649.095 281.047 649.095C277.219 649.095 273.778 649.667 270.726 650.791C267.673 651.924 265.057 653.553 262.866 655.685C260.676 657.817 258.99 660.375 257.808 663.36C256.626 666.345 256.034 669.698 256.034 673.409C256.034 677.121 256.645 680.338 257.876 683.333C259.106 686.318 260.812 688.886 263.002 691.008C265.192 693.14 267.809 694.787 270.861 695.97C273.914 697.152 277.306 697.733 281.037 697.733C287.045 697.733 292.036 696.638 296 694.458C299.963 692.268 303.404 689.128 306.321 685.029L319.578 692.684C315.663 699.362 310.517 704.43 304.14 707.88C297.763 711.32 290.156 713.045 281.318 713.045C275.31 713.045 269.708 712.134 264.514 710.312C259.32 708.49 254.842 705.874 251.082 702.453C247.322 699.042 244.357 694.865 242.196 689.952C240.035 685.029 238.959 679.524 238.959 673.419C238.959 667.314 240.064 661.809 242.264 656.886C244.463 651.963 247.477 647.796 251.286 644.385C255.094 640.974 259.572 638.348 264.717 636.526C269.863 634.704 275.397 633.793 281.318 633.793C290.156 633.793 297.763 635.518 304.14 638.968C310.517 642.418 315.663 647.476 319.578 654.153L306.321 661.809L306.33 661.8Z" fill="white"/>
<path d="M348.544 635.566V663.437H370.543L389.537 635.566H409.209L385.021 670.55L410.983 711.136H390.758L370.94 679.03H348.534V711.136H331.459V635.576H348.534L348.544 635.566Z" fill="white"/>
<path d="M434.909 635.566L459.097 675.881H460.193L483.557 635.566H503.094L467.567 692.278V711.136H450.763V692.278L415.372 635.566H434.909Z" fill="white"/>
<path d="M591.158 635.566L636.385 686.395V635.566H653.471V711.126H637.17L591.846 660.162V711.126H575.042V635.566H591.168H591.158Z" fill="white"/>
<path d="M750.622 673.419C750.622 679.34 749.479 684.738 747.211 689.612C744.934 694.487 741.881 698.654 738.053 702.114C734.225 705.573 729.738 708.268 724.592 710.177C719.446 712.086 714 713.045 708.263 713.045C702.526 713.045 697.08 712.086 691.934 710.177C686.788 708.268 682.301 705.573 678.473 702.114C674.645 698.654 671.593 694.487 669.315 689.612C667.038 684.738 665.895 679.34 665.895 673.419C665.895 667.498 667.028 662.1 669.315 657.225C671.593 652.351 674.645 648.184 678.473 644.724C682.301 641.264 686.788 638.57 691.934 636.661C697.08 634.752 702.526 633.793 708.263 633.793C714 633.793 719.446 634.752 724.592 636.661C729.738 638.57 734.225 641.264 738.053 644.724C741.881 648.184 744.934 652.351 747.211 657.225C749.488 662.1 750.622 667.498 750.622 673.419ZM682.989 673.419C682.989 677.334 683.648 680.842 684.966 683.943C686.284 687.044 688.058 689.661 690.296 691.803C692.525 693.944 695.19 695.582 698.291 696.726C701.383 697.869 704.716 698.431 708.263 698.431C711.81 698.431 715.144 697.859 718.235 696.726C721.327 695.592 723.992 693.944 726.23 691.803C728.459 689.661 730.233 687.044 731.56 683.943C732.878 680.852 733.537 677.344 733.537 673.419C733.537 669.494 732.878 665.996 731.56 662.895C730.242 659.803 728.459 657.177 726.23 655.035C724.001 652.894 721.336 651.256 718.235 650.112C715.134 648.978 711.81 648.407 708.263 648.407C704.716 648.407 701.383 648.978 698.291 650.112C695.19 651.256 692.525 652.894 690.296 655.035C688.067 657.177 686.284 659.794 684.966 662.895C683.648 665.996 682.989 669.504 682.989 673.419Z" fill="white"/>
<path d="M773.988 635.566L798.854 695.824H802.547L827.278 635.566H846.001L812.935 711.126H788.204L755.003 635.566H773.997H773.988Z" fill="white"/>
<path d="M526.617 628.724C527.151 630.586 528.205 632.031 529.779 633.061L529.77 633.059L525.284 643.072L518.972 656.325C512.665 672.6 519.414 683.599 530.613 686.652C547.712 691.315 556.759 678.9 555.79 667.27C554.821 655.641 553.852 647.889 553.852 647.889L535.939 665.332L544.832 667.27C543.515 674.418 541.254 677.446 533.985 675.023C526.717 672.6 526.546 665.913 536.408 649.342L544.983 630.442C545.741 629.379 546.224 628.256 546.438 627.093C547.014 623.967 546.483 621.337 544.832 619.23C543.18 617.122 541.102 615.833 538.595 615.371C535.631 614.825 532.97 615.31 530.613 616.817C528.256 618.324 526.816 620.473 526.305 623.247C525.975 625.038 526.081 626.871 526.617 628.724Z" fill="#62D7C7"/>
<path d="M239.593 749.93V782.832H232V749.93H239.593Z" fill="white"/>
<path d="M252.811 749.93L272.916 772.063V749.93H280.448V782.832H273.22L253.114 760.64V782.832H245.643V749.93H252.811Z" fill="white"/>
<path d="M337.724 749.93V756.594H324.057V782.832H316.464V756.594H302.798V749.93H337.724Z" fill="white"/>
<path d="M350.162 749.93V762.484H369.113V749.93H376.706V782.832H369.113V769.148H350.162V782.832H342.569V749.93H350.162Z" fill="white"/>
<path d="M413.279 749.93V756.653H390.38V762.722H410.971V769.445H390.38V775.99H414.13V782.832H382.787V749.93H413.279Z" fill="white"/>
<path d="M454.612 749.93C456.92 749.93 459.148 750.327 461.294 751.12C463.481 751.914 465.424 753.024 467.125 754.452C468.826 755.88 470.182 757.605 471.195 759.628C472.207 761.651 472.713 763.892 472.713 766.351C472.713 768.81 472.207 771.051 471.195 773.074C470.182 775.097 468.826 776.842 467.125 778.31C465.424 779.738 463.481 780.848 461.294 781.642C459.148 782.435 456.92 782.832 454.612 782.832H437.301V749.93H454.612ZM444.894 776.049H454.612C456.111 776.049 457.508 775.811 458.803 775.335C460.099 774.859 461.213 774.185 462.144 773.312C463.076 772.44 463.805 771.428 464.331 770.278C464.857 769.088 465.121 767.779 465.121 766.351C465.121 764.923 464.857 763.634 464.331 762.484C463.805 761.294 463.076 760.263 462.144 759.39C461.213 758.518 460.099 757.843 458.803 757.367C457.508 756.891 456.111 756.653 454.612 756.653H444.894V776.049Z" fill="#62D7C7"/>
<path d="M508.664 749.93V756.653H485.764V762.722H506.355V769.445H485.764V775.99H509.514V782.832H478.171V749.93H508.664Z" fill="#62D7C7"/>
<path d="M534.988 749.93C536.972 749.93 538.794 750.248 540.454 750.882C542.155 751.477 543.613 752.35 544.828 753.5C546.083 754.611 547.055 755.959 547.743 757.546C548.472 759.132 548.837 760.898 548.837 762.841C548.837 764.785 548.472 766.55 547.743 768.136C547.055 769.683 546.083 771.012 544.828 772.122C543.613 773.193 542.155 774.026 540.454 774.621C538.794 775.216 536.972 775.514 534.988 775.514H522.778V782.832H515.186V749.93H534.988ZM522.778 768.731H534.684C536.628 768.731 538.207 768.235 539.422 767.244C540.637 766.212 541.244 764.745 541.244 762.841C541.244 760.937 540.637 759.45 539.422 758.379C538.207 757.268 536.628 756.713 534.684 756.713H522.778V768.731Z" fill="#62D7C7"/>
<path d="M586.861 749.93V756.594H573.194V782.832H565.601V756.594H551.935V749.93H586.861Z" fill="#62D7C7"/>
<path d="M599.299 749.93V762.484H618.25V749.93H625.843V782.832H618.25V769.148H599.299V782.832H591.706V749.93H599.299Z" fill="#62D7C7"/>
<path d="M661.384 759.509C659.4 758.161 657.355 757.209 655.249 756.653C653.143 756.059 650.754 755.761 648.081 755.761C646.421 755.761 645.065 755.86 644.012 756.059C642.959 756.257 642.129 756.515 641.521 756.832C640.914 757.149 640.489 757.526 640.246 757.962C640.043 758.359 639.942 758.795 639.942 759.271C639.942 760.223 640.347 760.878 641.157 761.235C641.967 761.552 643.02 761.79 644.315 761.949L654.399 763.079C658.003 763.515 660.837 764.507 662.902 766.054C664.968 767.601 666 769.901 666 772.955C666 774.82 665.555 776.426 664.664 777.775C663.814 779.083 662.599 780.194 661.019 781.106C659.481 781.979 657.638 782.614 655.492 783.01C653.386 783.446 651.078 783.665 648.567 783.665C645.125 783.665 642.027 783.268 639.274 782.475C636.561 781.681 633.868 780.313 631.195 778.369L634.779 772.598C637.087 774.185 639.395 775.355 641.703 776.109C644.052 776.823 646.624 777.18 649.418 777.18C652.09 777.18 654.297 776.842 656.039 776.168C657.78 775.494 658.65 774.463 658.65 773.074C658.65 772.162 658.367 771.488 657.8 771.051C657.233 770.576 656.241 770.258 654.824 770.1L643.526 768.85C640.084 768.454 637.371 767.541 635.386 766.113C633.443 764.646 632.471 762.385 632.471 759.331C632.471 757.586 632.876 756.078 633.686 754.809C634.536 753.54 635.67 752.489 637.087 751.656C638.504 750.823 640.144 750.208 642.007 749.811C643.91 749.375 645.935 749.157 648.081 749.157C651.24 749.157 654.196 749.494 656.95 750.168C659.703 750.843 662.396 752.132 665.028 754.036L661.384 759.509Z" fill="#62D7C7"/>
</svg>
