<svg width="600" height="600" viewBox="0 0 600 600" fill="none" xmlns="http://www.w3.org/2000/svg">
<path d="M287.302 82.9408C286.846 82.2387 286.43 81.5274 286.056 80.8046L287.302 82.9408C297.858 99.184 330.491 110.544 397.501 146.703C495.379 199.518 532.689 287.221 508.462 359.903C489.08 418.048 445.471 460.204 398.47 501.875C439.657 461.173 508.462 405.45 505.555 320.655C503.141 250.252 467.76 197.033 389.748 151.548C311.737 106.063 300.269 100.025 292.839 92.4337L287.302 82.9408Z" fill="#62D7C7"/>
<path d="M283.146 84.3223C283 83.77 282.836 83.2273 282.671 82.6846L288.427 96.1646C288.573 107.009 285.355 118.018 279.967 127.34C261.864 159.185 227.19 174.603 198.525 195.002C158.404 222.844 113.884 262.5 99.0668 310.334C92.3703 331.935 92.351 355.203 100.133 376.688C116.142 419.715 155.778 453.711 192.129 480.051C201.742 486.825 211.54 493.347 221.56 499.52C201.49 487.242 181.866 474.159 163.434 459.458C140.399 441.006 118.817 420.083 103.505 394.606C94.0856 379.13 86.8562 362.016 84.6273 343.884C76.2543 268.004 153.481 215.528 209.97 180.262C229.681 168.023 250.623 156.694 266.08 139.076C279.386 124.423 288.514 104.131 283.146 84.3223Z" fill="#62D7C7"/>
<path fill-rule="evenodd" clip-rule="evenodd" d="M154.234 330.472C153.193 343.031 153.932 355.697 156.333 368.089C157.392 371.469 158.425 374.636 159.539 377.584C161.936 386.31 166.269 393.225 170.929 400.662C177.556 411.239 183.332 415.626 184.301 436.461C185.27 457.297 215.051 494.122 226.196 497.514C200.515 482.493 204.652 456.812 217.25 442.276C232.755 424.385 226.196 414.774 226.196 414.774C226.196 414.774 234.694 423.378 229.364 443.729C216.117 478.617 258.436 518.834 272.004 527.556C240.095 499.452 244.869 459.719 262.313 444.698C285.086 423.863 280.241 405.935 280.241 405.935C280.241 405.935 289.884 424.813 277.334 442.276C255.046 473.287 302.045 527.071 321.912 541.608C297.685 518.834 298.066 469.41 318.035 451.482C338.005 433.554 337.417 399.151 337.417 399.151C337.417 399.151 338.731 419.987 348.077 435.008C360.191 454.476 358.253 506.236 327.242 527.556C363.583 505.267 402.831 456.812 386.356 430.647C376.771 415.423 387.81 402.543 387.81 402.543C387.81 402.543 379.573 411.265 399.439 428.708C414.46 443.729 412.037 490.73 386.356 498.968C406.707 493.153 434.811 457.297 434.811 430.647C434.811 399.636 447.409 402.543 453.754 378.757C462.389 353.646 461.943 324.556 459.227 296.951C454.73 251.219 421.674 212.465 387.184 181.939C380.453 175.981 373.585 170.14 366.715 164.297C349.222 149.419 331.713 134.528 316.412 117.669C304.763 104.838 294.433 90.9122 284.131 77.0154L283.317 75.9106C279.111 70.2414 274.905 64.5723 270.612 59C270.612 59 278.22 73.769 283.123 83.6537L288.88 97.1338C290.779 103.384 291.932 110.178 292.843 116.331C294.113 124.908 294.142 133.746 291.419 142.1C286.796 156.248 275.012 167.228 263.645 177.588C258.348 182.415 252.959 187.22 247.555 192.039L247.553 192.041C203.858 231.002 159.176 270.844 154.234 330.472ZM319.87 334.782C319.87 334.782 179.907 392.836 174.261 322.525C171.21 284.452 221.664 245.38 221.664 245.38C221.664 245.38 259.298 319.188 319.87 334.782ZM445.407 347.065C438.276 382.829 365.462 340.037 365.462 340.037C409.036 338.351 438.628 289.159 438.628 289.159C438.628 289.159 449.687 325.591 445.407 347.065Z" fill="white"/>
<path d="M190.326 368.508C179.075 364.816 168.676 356.327 167.193 343.913C165.691 352.557 170.382 361.512 177.03 366.997C183.813 372.656 192.37 375.573 200.889 377.162C217.732 379.944 234.855 378.141 251.126 373.557C230.708 373.373 209.882 374.875 190.335 368.508H190.326Z" fill="#62D7C7"/>
</svg>
