<svg width="900" height="344" viewBox="0 0 900 344" fill="none" xmlns="http://www.w3.org/2000/svg">
<path d="M70.0754 109.473V138.304H112.706V109.473H129.781V185.033H112.706V153.606H70.0754V185.033H53V109.473H70.0754Z" fill="white"/>
<path d="M201.387 109.473L233.493 185.033H215.458L210.535 173.559H163.941L159.018 185.033H140.712L173.642 109.473H201.377H201.387ZM170.23 158.664H203.848L190.184 124.639H184.311L170.24 158.664H170.23Z" fill="white"/>
<path d="M306.33 135.706C303.413 131.607 299.973 128.467 296.009 126.277C292.046 124.087 287.055 123.002 281.047 123.002C277.219 123.002 273.778 123.573 270.726 124.698C267.673 125.831 265.057 127.459 262.866 129.591C260.676 131.723 258.99 134.282 257.808 137.267C256.626 140.252 256.034 143.605 256.034 147.316C256.034 151.028 256.645 154.245 257.876 157.24C259.106 160.224 260.812 162.793 263.002 164.915C265.192 167.047 267.809 168.694 270.861 169.877C273.914 171.059 277.306 171.64 281.037 171.64C287.045 171.64 292.036 170.545 296 168.365C299.963 166.175 303.404 163.035 306.321 158.936L319.578 166.591C315.663 173.268 310.517 178.337 304.14 181.787C297.763 185.227 290.156 186.952 281.318 186.952C275.31 186.952 269.708 186.041 264.514 184.219C259.32 182.397 254.842 179.781 251.082 176.36C247.322 172.949 244.357 168.772 242.196 163.859C240.035 158.936 238.959 153.431 238.959 147.326C238.959 141.221 240.064 135.716 242.264 130.793C244.463 125.87 247.477 121.703 251.286 118.292C255.094 114.881 259.572 112.254 264.717 110.433C269.863 108.611 275.397 107.7 281.318 107.7C290.156 107.7 297.763 109.425 304.14 112.875C310.517 116.325 315.663 121.383 319.578 128.06L306.321 135.716L306.33 135.706Z" fill="white"/>
<path d="M348.544 109.473V137.344H370.543L389.537 109.473H409.209L385.021 144.457L410.983 185.043H390.758L370.94 152.937H348.534V185.043H331.459V109.483H348.534L348.544 109.473Z" fill="white"/>
<path d="M434.909 109.473L459.097 149.787H460.193L483.557 109.473H503.094L467.567 166.184V185.043H450.763V166.184L415.372 109.473H434.909Z" fill="white"/>
<path d="M591.158 109.473L636.385 160.302V109.473H653.471V185.033H637.17L591.846 134.069V185.033H575.042V109.473H591.168H591.158Z" fill="white"/>
<path d="M750.622 147.326C750.622 153.247 749.479 158.645 747.211 163.519C744.934 168.394 741.881 172.561 738.053 176.021C734.225 179.48 729.738 182.174 724.592 184.084C719.446 185.993 714 186.952 708.263 186.952C702.526 186.952 697.08 185.993 691.934 184.084C686.788 182.174 682.301 179.48 678.473 176.021C674.645 172.561 671.593 168.394 669.315 163.519C667.038 158.645 665.895 153.247 665.895 147.326C665.895 141.405 667.028 136.007 669.315 131.132C671.593 126.258 674.645 122.091 678.473 118.631C682.301 115.171 686.788 112.477 691.934 110.568C697.08 108.659 702.526 107.7 708.263 107.7C714 107.7 719.446 108.659 724.592 110.568C729.738 112.477 734.225 115.171 738.053 118.631C741.881 122.091 744.934 126.258 747.211 131.132C749.488 136.007 750.622 141.405 750.622 147.326ZM682.989 147.326C682.989 151.241 683.648 154.749 684.966 157.85C686.284 160.951 688.058 163.568 690.296 165.71C692.525 167.851 695.19 169.489 698.291 170.633C701.383 171.776 704.716 172.338 708.263 172.338C711.81 172.338 715.144 171.766 718.235 170.633C721.327 169.499 723.992 167.851 726.23 165.71C728.459 163.568 730.233 160.951 731.56 157.85C732.878 154.759 733.537 151.251 733.537 147.326C733.537 143.401 732.878 139.903 731.56 136.802C730.242 133.71 728.459 131.084 726.23 128.942C724.001 126.801 721.336 125.163 718.235 124.019C715.134 122.885 711.81 122.314 708.263 122.314C704.716 122.314 701.383 122.885 698.291 124.019C695.19 125.163 692.525 126.801 690.296 128.942C688.067 131.084 686.284 133.7 684.966 136.802C683.648 139.903 682.989 143.411 682.989 147.326Z" fill="white"/>
<path d="M773.988 109.473L798.854 169.731H802.547L827.278 109.473H846.001L812.935 185.033H788.204L755.003 109.473H773.997H773.988Z" fill="white"/>
<path d="M526.617 102.63C527.151 104.493 528.205 105.938 529.779 106.967L529.77 106.966L525.284 116.979L518.972 130.232C512.665 146.507 519.414 157.505 530.613 160.559C547.712 165.221 556.759 152.806 555.79 141.177C554.821 129.548 553.852 121.796 553.852 121.796L535.939 139.239L544.832 141.177C543.515 148.325 541.254 151.353 533.985 148.93C526.717 146.507 526.546 139.82 536.408 123.249L544.983 104.349C545.741 103.286 546.224 102.163 546.438 101C547.014 97.874 546.483 95.2438 544.832 93.1363C543.18 91.0288 541.102 89.7394 538.595 89.2777C535.631 88.7316 532.97 89.2169 530.613 90.724C528.256 92.2311 526.816 94.38 526.305 97.1534C525.975 98.9451 526.081 100.778 526.617 102.63Z" fill="#62D7C7"/>
<path d="M239.593 223.837V256.738H232V223.837H239.593Z" fill="white"/>
<path d="M252.811 223.837L272.916 245.97V223.837H280.448V256.738H273.22L253.114 234.546V256.738H245.643V223.837H252.811Z" fill="white"/>
<path d="M337.724 223.837V230.501H324.057V256.738H316.464V230.501H302.798V223.837H337.724Z" fill="white"/>
<path d="M350.162 223.837V236.391H369.113V223.837H376.706V256.738H369.113V243.054H350.162V256.738H342.569V223.837H350.162Z" fill="white"/>
<path d="M413.279 223.837V230.56H390.38V236.629H410.971V243.352H390.38V249.896H414.13V256.738H382.787V223.837H413.279Z" fill="white"/>
<path d="M454.612 223.837C456.92 223.837 459.148 224.234 461.294 225.027C463.481 225.82 465.424 226.931 467.125 228.359C468.826 229.787 470.182 231.512 471.195 233.535C472.207 235.558 472.713 237.799 472.713 240.258C472.713 242.717 472.207 244.958 471.195 246.981C470.182 249.004 468.826 250.749 467.125 252.217C465.424 253.645 463.481 254.755 461.294 255.549C459.148 256.342 456.92 256.738 454.612 256.738H437.301V223.837H454.612ZM444.894 249.956H454.612C456.111 249.956 457.508 249.718 458.803 249.242C460.099 248.766 461.213 248.092 462.144 247.219C463.076 246.346 463.805 245.335 464.331 244.185C464.857 242.995 465.121 241.686 465.121 240.258C465.121 238.83 464.857 237.541 464.331 236.391C463.805 235.201 463.076 234.17 462.144 233.297C461.213 232.424 460.099 231.75 458.803 231.274C457.508 230.798 456.111 230.56 454.612 230.56H444.894V249.956Z" fill="#62D7C7"/>
<path d="M508.664 223.837V230.56H485.764V236.629H506.355V243.352H485.764V249.896H509.514V256.738H478.171V223.837H508.664Z" fill="#62D7C7"/>
<path d="M534.988 223.837C536.972 223.837 538.794 224.154 540.454 224.789C542.155 225.384 543.613 226.257 544.828 227.407C546.083 228.518 547.055 229.866 547.743 231.453C548.472 233.039 548.837 234.804 548.837 236.748C548.837 238.691 548.472 240.456 547.743 242.043C547.055 243.59 546.083 244.919 544.828 246.029C543.613 247.1 542.155 247.933 540.454 248.528C538.794 249.123 536.972 249.42 534.988 249.42H522.778V256.738H515.186V223.837H534.988ZM522.778 242.638H534.684C536.628 242.638 538.207 242.142 539.422 241.15C540.637 240.119 541.244 238.652 541.244 236.748C541.244 234.844 540.637 233.357 539.422 232.286C538.207 231.175 536.628 230.62 534.684 230.62H522.778V242.638Z" fill="#62D7C7"/>
<path d="M586.861 223.837V230.501H573.194V256.738H565.601V230.501H551.935V223.837H586.861Z" fill="#62D7C7"/>
<path d="M599.299 223.837V236.391H618.25V223.837H625.843V256.738H618.25V243.054H599.299V256.738H591.706V223.837H599.299Z" fill="#62D7C7"/>
<path d="M661.384 233.416C659.4 232.067 657.355 231.116 655.249 230.56C653.143 229.965 650.754 229.668 648.081 229.668C646.421 229.668 645.065 229.767 644.012 229.965C642.959 230.164 642.129 230.421 641.521 230.739C640.914 231.056 640.489 231.433 640.246 231.869C640.043 232.266 639.942 232.702 639.942 233.178C639.942 234.13 640.347 234.784 641.157 235.141C641.967 235.459 643.02 235.697 644.315 235.855L654.399 236.986C658.003 237.422 660.837 238.414 662.902 239.961C664.968 241.507 666 243.808 666 246.862C666 248.726 665.555 250.333 664.664 251.681C663.814 252.99 662.599 254.101 661.019 255.013C659.481 255.886 657.638 256.52 655.492 256.917C653.386 257.353 651.078 257.571 648.567 257.571C645.125 257.571 642.027 257.175 639.274 256.381C636.561 255.588 633.868 254.22 631.195 252.276L634.779 246.505C637.087 248.092 639.395 249.262 641.703 250.015C644.052 250.729 646.624 251.086 649.418 251.086C652.09 251.086 654.297 250.749 656.039 250.075C657.78 249.401 658.65 248.369 658.65 246.981C658.65 246.069 658.367 245.395 657.8 244.958C657.233 244.482 656.241 244.165 654.824 244.006L643.526 242.757C640.084 242.36 637.371 241.448 635.386 240.02C633.443 238.552 632.471 236.292 632.471 233.238C632.471 231.492 632.876 229.985 633.686 228.716C634.536 227.447 635.67 226.395 637.087 225.563C638.504 224.73 640.144 224.115 642.007 223.718C643.91 223.282 645.935 223.064 648.081 223.064C651.24 223.064 654.196 223.401 656.95 224.075C659.703 224.749 662.396 226.039 665.028 227.942L661.384 233.416Z" fill="#62D7C7"/>
</svg>
